<?xml version="1.0" encoding="UTF-8"?>
<svg width="184px" height="184px" viewBox="0 0 184 184" version="1.1" xmlns="http://www.w3.org/2000/svg" xmlns:xlink="http://www.w3.org/1999/xlink">
    <title>Group</title>
    <g id="Page-1" stroke="none" stroke-width="1" fill="none" fill-rule="evenodd">
        <g id="Artboard" transform="translate(-405.000000, -41.000000)">
            <g id="Group" transform="translate(405.000000, 41.000000)">
                <circle id="Oval" fill="#222222" cx="92" cy="92" r="92"></circle>
                <path d="M92.9983571,29 C93.6043543,29 94.2074884,29.0429153 94.8058506,29.1249314 C92.4591629,31.1800996 90.7518734,33.9457549 90.0227685,37.0823899 C86.3734254,38.9020005 82.6906809,43.9211885 79.7513565,51.2635269 C79.2121623,52.610115 78.7044606,54.0139236 78.2272978,55.4682769 C83.0246949,56.9016494 87.991008,58.759407 93.0050375,60.9976807 C102.51776,56.7528762 111.860613,53.8680115 120.200468,52.6673354 C133.645015,50.7313767 143.220723,53.424553 147.163044,60.25 C151.106319,67.075447 148.652747,76.7094651 140.252769,87.3763123 C139.301898,88.5846177 138.283247,89.7936592 137.205231,91.0002026 L125.952,91 L126.488523,91.5 C120.229329,97.3930496 112.495992,103.110959 103.870034,108.170459 L102.942435,108.710007 C93.9440944,113.90181 84.7854268,117.923454 76.2547057,120.481209 C74.2057675,111.819939 73.1121099,101.883606 73.1121099,91.5 C73.1121099,91.3331039 73.1123927,91.1663234 73.1129577,90.9996619 L81.0412671,91.0000014 C81.5509886,84.8493289 86.7191089,80 93,80 C99.2800188,80 104.448923,84.8493289 104.958726,91.0000014 L81.0412671,91.0000014 C81.0139378,91.3297756 81,91.6632908 81,92 C81,98.616728 86.3832722,104 93,104 C99.616728,104 105,98.616728 105,92 C105,91.6632908 104.98606,91.3297756 104.958726,91.0000014 L125.952,91 L125.812281,90.8692021 C119.448532,84.9884819 111.63141,79.3018477 102.942435,74.2899932 C93.9440944,69.0981904 84.7854268,65.0765457 76.2547057,62.5187913 C74.2396391,71.0408484 73.1475437,80.7973094 73.1129577,90.9996619 L65.784,91 L65.7828854,91.5 C65.7828854,92.8918876 65.8027473,94.2768016 65.8408606,95.6535348 L65.8849981,97.0274963 C63.4250249,95.0508598 61.1175665,93.0354599 58.9875568,91.0007605 L65.784,91 L65.7870733,90.3658054 C65.8651901,79.7946309 67.0345334,69.642837 69.1602453,60.7001343 C67.6609992,60.3854219 66.1903825,60.1231614 64.7541217,59.9171677 C54.7747337,58.4799805 47.4598242,59.9734346 45.1847108,63.9121094 C42.9086428,67.8507842 45.2715543,74.9299087 51.5061669,82.847313 C53.6489329,85.5688009 56.1621285,88.30176 58.9875568,91.0007605 L48.7915582,91.0003998 C53.6168661,96.4033156 59.6654973,101.755668 66.5616155,106.75116 C67.1303936,112.208084 68.0026478,117.433266 69.159291,122.299866 C67.6600447,122.614578 66.1894282,122.876839 64.7531675,123.083786 C56.9305562,124.210075 50.7455688,123.534874 47.3414875,121.292786 C45.9491259,121.716217 44.4718291,121.947006 42.9420443,121.947006 C41.2280746,121.947006 39.5818621,121.656135 38.0444427,121.129707 C38.2725267,121.686653 38.5349665,122.227386 38.8365333,122.75 C41.9457278,128.132538 48.5553903,130.944923 57.8047192,130.944923 C60.2850125,130.944923 62.9561714,130.741791 65.7991089,130.332665 C67.5321651,130.082802 69.3100747,129.758552 71.1223398,129.366592 C71.6882551,131.13089 72.296161,132.832245 72.9470113,134.456352 C77.9906249,147.059158 85.1127605,154 92.9983571,154 C100.884908,154 108.007044,147.059158 113.051611,134.456352 C116.180847,126.636223 118.357665,117.10997 119.436053,106.753067 C123.88035,103.533462 127.9725,100.166039 131.611346,96.7318574 C132.634383,97.8724517 133.596344,99.014 134.49341,100.152687 C139.396738,106.38018 141.903753,112.087921 141.644176,116.158203 C143.909746,118.284897 145.521603,121.096329 146.144778,124.26062 C146.516965,123.780922 146.858614,123.278335 147.163044,122.75 C151.107274,115.924553 148.652747,106.291489 140.253723,95.6236877 C139.170563,94.2484893 138.000559,92.8723374 136.755163,91.5 C136.906304,91.3334542 137.056333,91.1668522 137.205231,91.0002026 L176,91 L175.988746,92.3890936 C175.24696,138.14032 137.928,175 92,175 C46.0720002,175 8.75304,138.14032 8.0112536,92.3890936 L8,91 L48.7915582,91.0003998 C47.7139121,89.7937553 46.6972819,88.5845888 45.7458543,87.3763123 C37.3468303,76.7094651 34.8932581,67.075447 38.8365333,60.25 C42.779809,53.424553 52.355517,50.7323303 65.7981546,52.6673354 C67.5312108,52.9171982 69.3091202,53.2414475 71.1213855,53.6334077 C71.6882551,51.8691101 72.296161,50.1687087 72.946057,48.5436477 C77.9906249,35.9408418 85.1118062,29 92.9983571,29 Z M111.348139,112.200455 C110.223943,119.453148 108.504248,126.09549 106.246312,131.736473 C102.501536,141.091064 97.5495383,146.675781 92.9983571,146.675781 C88.4481303,146.675781 83.4951779,141.091064 79.7513565,131.736473 C79.2121623,130.389885 78.7044606,128.986076 78.2272978,127.531723 C87.3544724,124.805168 97.0924162,120.542244 106.606093,115.052895 C108.216041,114.124969 109.796405,113.172249 111.348139,112.200455 Z M130.5,120 C126.363648,120 123,123.364563 123,127.5 C123,131.635437 126.363648,135 130.5,135 C134.635437,135 138,131.635437 138,127.5 C138,123.364563 134.634522,120 130.5,120 Z M42.5,99 C38.364563,99 35,102.588867 35,107 C35,111.411133 38.364563,115 42.5,115 C46.635437,115 50,111.411133 50,107 C50,102.588867 46.635437,99 42.5,99 Z M121.24641,59.9171677 C115.229384,60.783104 108.613041,62.6170195 101.764797,65.2701416 C103.382379,66.1274949 104.998053,67.0191802 106.607047,67.9471055 C116.121679,73.435501 124.684847,79.7326125 131.611346,86.2681426 C132.634383,85.128502 133.596344,83.986 134.49341,82.847313 C140.728023,74.9289551 143.091889,67.8507842 140.815821,63.9121094 C138.540708,59.9734346 131.224844,58.4799805 121.24641,59.9171677 Z M104.5,33 C108.635437,33 112,36.5888672 112,41 C112,45.411133 108.635437,49 104.5,49 C100.364563,49 97,45.411133 97,41 C97,36.5888672 100.364563,33 104.5,33 Z" id="Combined-Shape" fill="#2E96ED"></path>
            </g>
        </g>
    </g>
</svg>